<svg width="100" height="24" viewBox="0 0 100 24" fill="none" xmlns="http://www.w3.org/2000/svg">
<path d="M14.4266 17.5565C14.4266 18.8705 14.0978 20.0025 13.4402 20.9526C12.7928 21.9027 11.8578 22.6304 10.635 23.1358C9.42252 23.6412 7.97369 23.8939 6.28853 23.8939C5.4665 23.8939 4.68044 23.8484 3.93033 23.7574C3.18023 23.6665 2.47123 23.5351 1.80333 23.3632C1.1457 23.1813 0.544595 22.964 0 22.7113V19.2849C0.914509 19.6791 1.93691 20.0379 3.0672 20.3613C4.19749 20.6747 5.34834 20.8313 6.51973 20.8313C7.47534 20.8313 8.26654 20.71 8.89334 20.4675C9.53041 20.2148 10.0031 19.861 10.3113 19.4062C10.6196 18.9413 10.7737 18.4005 10.7737 17.784C10.7737 17.127 10.5939 16.5711 10.2343 16.1162C9.87464 15.6614 9.33004 15.247 8.60049 14.873C7.88122 14.4889 6.97698 14.0796 5.88779 13.645C5.14797 13.3519 4.43896 13.0183 3.76079 12.6443C3.09289 12.2704 2.49692 11.8307 1.97287 11.3253C1.44883 10.82 1.03268 10.2236 0.724414 9.53632C0.426428 8.83891 0.277435 8.02022 0.277435 7.08023C0.277435 5.82691 0.580559 4.75553 1.18681 3.86608C1.80333 2.97663 2.66646 2.29438 3.7762 1.81933C4.89622 1.34428 6.20119 1.10676 7.69112 1.10676C8.87279 1.10676 9.98253 1.22805 11.0203 1.47063C12.0684 1.7132 13.096 2.05685 14.103 2.50158L12.9316 5.42767C12.0068 5.0537 11.1077 4.75553 10.2343 4.53316C9.37115 4.3108 8.48746 4.19962 7.58323 4.19962C6.8023 4.19962 6.13954 4.31586 5.59494 4.54833C5.05035 4.7808 4.6342 5.10929 4.34649 5.5338C4.06905 5.9482 3.93033 6.44346 3.93033 7.01958C3.93033 7.66646 4.0896 8.21226 4.40814 8.65698C4.73695 9.0916 5.24044 9.49084 5.91862 9.85471C6.60707 10.2186 7.49075 10.6229 8.56967 11.0676C9.81299 11.573 10.8662 12.1036 11.7293 12.6595C12.6028 13.2154 13.2707 13.8825 13.733 14.6608C14.1954 15.4289 14.4266 16.3942 14.4266 17.5565Z" fill="black"/>
<path d="M33.2768 6.80733V23.5907H30.4254L29.9322 21.3316H29.7318C29.3722 21.9078 28.9149 22.3879 28.36 22.772C27.8052 23.1459 27.1887 23.4239 26.5105 23.6058C25.8323 23.7979 25.1182 23.8939 24.3681 23.8939C23.0836 23.8939 21.9842 23.6816 21.0697 23.2571C20.1654 22.8225 19.4718 22.1554 18.9889 21.2558C18.506 20.3563 18.2645 19.1939 18.2645 17.7688V6.80733H21.902V17.1017C21.902 18.4056 22.1691 19.3809 22.7035 20.0278C23.248 20.6747 24.0906 20.9981 25.2312 20.9981C26.3307 20.9981 27.2041 20.7757 27.8514 20.331C28.4988 19.8863 28.956 19.2293 29.2232 18.3601C29.5006 17.4908 29.6393 16.4245 29.6393 15.1611V6.80733H33.2768Z" fill="black"/>
<path d="M42.0931 0V5.68541C42.0931 6.34239 42.0725 6.98926 42.0314 7.62603C42.0006 8.25268 41.9698 8.74289 41.939 9.09665H42.0931C42.5555 8.36892 43.1977 7.75742 44.0197 7.26216C44.852 6.75679 45.9155 6.50411 47.2102 6.50411C49.2345 6.50411 50.8631 7.23689 52.0962 8.70246C53.3292 10.1579 53.9457 12.3159 53.9457 15.1762C53.9457 17.0764 53.6632 18.6734 53.098 19.9672C52.5329 21.2609 51.7365 22.2413 50.709 22.9084C49.6917 23.5654 48.4947 23.8939 47.1178 23.8939C45.8231 23.8939 44.775 23.6614 43.9735 23.1965C43.1823 22.7214 42.5606 22.1706 42.1085 21.5439H41.8465L41.1837 23.5907H38.471V0H42.0931ZM46.2546 9.39987C45.2271 9.39987 44.4102 9.60202 43.8039 10.0063C43.208 10.4106 42.7764 11.0171 42.5092 11.8256C42.2421 12.6241 42.1034 13.6399 42.0931 14.873V15.1914C42.0931 17.0613 42.3911 18.4915 42.9871 19.482C43.5933 20.4725 44.6928 20.9678 46.2854 20.9678C47.5493 20.9678 48.5203 20.4675 49.1985 19.4668C49.8767 18.4561 50.2158 17.0107 50.2158 15.1308C50.2158 13.2306 49.8767 11.8004 49.1985 10.8402C48.5306 9.87998 47.5493 9.39987 46.2546 9.39987Z" fill="black"/>
<path d="M61.7602 0V5.68541C61.7602 6.34239 61.7396 6.98926 61.6985 7.62603C61.6677 8.25268 61.6369 8.74289 61.606 9.09665H61.7602C62.2226 8.36892 62.8648 7.75742 63.6868 7.26216C64.5191 6.75679 65.5826 6.50411 66.8773 6.50411C68.9016 6.50411 70.5302 7.23689 71.7633 8.70246C72.9963 10.1579 73.6128 12.3159 73.6128 15.1762C73.6128 17.0764 73.3303 18.6734 72.7651 19.9672C72.2 21.2609 71.4036 22.2413 70.3761 22.9084C69.3588 23.5654 68.1617 23.8939 66.7848 23.8939C65.4901 23.8939 64.442 23.6614 63.6406 23.1965C62.8494 22.7214 62.2277 22.1706 61.7756 21.5439H61.5136L60.8508 23.5907H58.1381V0H61.7602ZM65.9217 9.39987C64.8942 9.39987 64.0773 9.60202 63.471 10.0063C62.875 10.4106 62.4435 11.0171 62.1763 11.8256C61.9092 12.6241 61.7704 13.6399 61.7602 14.873V15.1914C61.7602 17.0613 62.0582 18.4915 62.6541 19.482C63.2604 20.4725 64.3598 20.9678 65.9525 20.9678C67.2164 20.9678 68.1874 20.4675 68.8656 19.4668C69.5438 18.4561 69.8829 17.0107 69.8829 15.1308C69.8829 13.2306 69.5438 11.8004 68.8656 10.8402C68.1977 9.87998 67.2164 9.39987 65.9217 9.39987Z" fill="black"/>
<path d="M84.6023 6.48895C86.1231 6.48895 87.4281 6.79722 88.5173 7.41377C89.6065 8.03032 90.4439 8.90461 91.0296 10.0366C91.6153 11.1687 91.9081 12.5231 91.9081 14.0998V16.0101H80.5179C80.559 17.6374 81.0008 18.8907 81.8434 19.7701C82.6963 20.6494 83.8882 21.0891 85.4192 21.0891C86.5084 21.0891 87.4846 20.988 88.3477 20.7859C89.2211 20.5736 90.1202 20.2653 91.045 19.861V22.7568C90.1921 23.151 89.3239 23.439 88.4402 23.621C87.5565 23.8029 86.4981 23.8939 85.2651 23.8939C83.5902 23.8939 82.1157 23.5755 80.8416 22.9387C79.5777 22.2919 78.5861 21.3316 77.8668 20.0581C77.1578 18.7846 76.8033 17.2028 76.8033 15.3127C76.8033 13.4327 77.127 11.8358 77.7744 10.5218C78.4217 9.20783 79.3311 8.2072 80.5025 7.5199C81.6739 6.8326 83.0405 6.48895 84.6023 6.48895ZM84.6023 9.17246C83.4618 9.17246 82.537 9.53632 81.828 10.2641C81.1293 10.9918 80.7182 12.0581 80.5949 13.463H88.3631C88.3529 12.6241 88.209 11.8812 87.9316 11.2344C87.6644 10.5875 87.2534 10.0821 86.6985 9.71826C86.1539 9.35439 85.4552 9.17246 84.6023 9.17246Z" fill="black"/>
<path d="M95.4686 21.7107C95.4686 20.8819 95.6843 20.3007 96.1159 19.9672C96.5577 19.6235 97.0921 19.4517 97.7189 19.4517C98.3457 19.4517 98.88 19.6235 99.3218 19.9672C99.7739 20.3007 100 20.8819 100 21.7107C100 22.5193 99.7739 23.1055 99.3218 23.4694C98.88 23.8231 98.3457 24 97.7189 24C97.0921 24 96.5577 23.8231 96.1159 23.4694C95.6843 23.1055 95.4686 22.5193 95.4686 21.7107Z" fill="#254ABC"/>
</svg>
